# xmcd CD database file
#
# Track frame offsets:
#	150
#	15795
#	29462
#	45147
#	59737
#	75600
#	86487
#	109432
#	119942
#
# Disc length: 1837 seconds
#
# Revision: 0
# Processed by: cddbd v1.5.1PL0 Copyright (c) Steve Scherf et al.
# Submitted via: CDex 1.51
#
DISCID=6e072b09
DTITLE=Rebekah Florence - Welcome To My Country
DYEAR=2000
DGENRE=Country
TTITLE0=Tickets To Wilco
TTITLE1=Stranger's Town
TTITLE2=I Love You
TTITLE3=Heyday Hairdo
TTITLE4=Bridge
TTITLE5=By The Light Of My Father's Smile
TTITLE6=How Wonderful
TTITLE7=Don't Pee On My Leg (& Tell Me It's Raining)
TTITLE8=Was It Something I Said
EXTD=YEAR: 2000
EXTT0=
EXTT1=
EXTT2=
EXTT3=
EXTT4=
EXTT5=
EXTT6=
EXTT7=
EXTT8=
PLAYORDER=
